<svg id="Layer_1" data-name="Layer 1" xmlns="http://www.w3.org/2000/svg" viewBox="0 0 1205 181"><defs><style>.cls-1{fill:#333;}.cls-2{fill:#fd6d26;}</style></defs><path class="cls-1" d="M297.45,34.24H271.89v66.63H256.28V34.24H230.6V20.55h66.85Z"/><path class="cls-1" d="M397.22,87.18v13.69H341.45V20.55H396.2V34.24H357.06V53.59h33.82V66.25H357.06V87.18Z"/><path class="cls-1" d="M443.7,100.87V20.67h15.62V59.81L494,20.55h16.17L479.45,56.19l32.69,44.68H495.62L470.06,65,459.32,76.66v24.21Z"/><path class="cls-1" d="M628.19,49.4v51.47H612.58V20.55h12.11l41.85,52.72V20.67h15.61v80.2H669.48Z"/><path class="cls-1" d="M732.82,100.87V20.67h15.61v80.2Z"/><path class="cls-1" d="M814.71,49.4v51.47H799.1V20.55h12.11l41.85,52.72V20.67h15.61v80.2H856Z"/><path class="cls-1" d="M915.72,84.47A23.88,23.88,0,0,0,921,87a24.9,24.9,0,0,0,8.59,1.36,15,15,0,0,0,7.58-1.64,10.31,10.31,0,0,0,4.3-5,27.46,27.46,0,0,0,1.92-8.43q.47-5,.46-11.82V20.67h15.6V61.39a132.63,132.63,0,0,1-1,16.69,33.48,33.48,0,0,1-4.07,12.83,21,21,0,0,1-9,8.26q-5.88,2.94-15.84,2.94-10.18,0-17.42-5Z"/><path class="cls-1" d="M999.2,100.87l31.67-80.32h12.66l31.56,80.32h-16.51l-7.36-20h-28.16l-7.35,20Zm38-63.46-11.54,32.46h22.74Z"/><path class="cls-1" d="M1164.68,41.6a19.08,19.08,0,0,0-2.88-2.15,35.67,35.67,0,0,0-5.1-2.66,44.22,44.22,0,0,0-6.5-2.21,28.56,28.56,0,0,0-7.13-.9q-6.45,0-9.61,2.37a7.88,7.88,0,0,0-3.17,6.68,6.86,6.86,0,0,0,1.19,4.12,10.17,10.17,0,0,0,3.45,2.89,29.1,29.1,0,0,0,5.71,2.26q3.45,1,8,2.15,5.88,1.59,10.68,3.4a28.83,28.83,0,0,1,8.15,4.52,18.83,18.83,0,0,1,5.15,6.5,21.68,21.68,0,0,1,1.81,9.33,23.36,23.36,0,0,1-2.43,11,20.59,20.59,0,0,1-6.51,7.41,27.85,27.85,0,0,1-9.5,4.13,48.24,48.24,0,0,1-11.31,1.3,60.5,60.5,0,0,1-17.88-2.71A55.44,55.44,0,0,1,1111,91.37l6.9-13.47a21.55,21.55,0,0,0,3.67,2.66,54.7,54.7,0,0,0,6.28,3.28,48.1,48.1,0,0,0,8,2.77,36,36,0,0,0,9.05,1.13q12.9,0,12.9-8.25a7,7,0,0,0-1.47-4.53,12.75,12.75,0,0,0-4.19-3.17,40,40,0,0,0-6.56-2.48c-2.56-.75-5.43-1.55-8.6-2.38a73.25,73.25,0,0,1-10-3.45,27,27,0,0,1-7.06-4.35,15.78,15.78,0,0,1-4.24-5.89,20.62,20.62,0,0,1-1.42-8,24.88,24.88,0,0,1,2.26-10.85,21.91,21.91,0,0,1,6.28-7.92,28.37,28.37,0,0,1,9.33-4.81A38.65,38.65,0,0,1,1143.53,20a44.44,44.44,0,0,1,15.61,2.66,58.54,58.54,0,0,1,12.44,6.27Z"/><path class="cls-1" d="M234.26,160.42V134.31h11a6.88,6.88,0,0,1,3.13.71,8.14,8.14,0,0,1,2.46,1.88,8.52,8.52,0,0,1,1.6,2.63,8.17,8.17,0,0,1,.57,3,8.92,8.92,0,0,1-.42,2.74,8,8,0,0,1-1.2,2.35,7.37,7.37,0,0,1-1.84,1.77,6.31,6.31,0,0,1-2.39,1l6.44,10.08H250.7l-6.18-9.64H236.8v9.64Zm2.54-11.92h8.57a4.29,4.29,0,0,0,2.08-.5,4.78,4.78,0,0,0,1.6-1.34,6.63,6.63,0,0,0,1-1.91,7,7,0,0,0,.37-2.24,6.44,6.44,0,0,0-1.57-4.16,5.36,5.36,0,0,0-1.69-1.29,4.7,4.7,0,0,0-2-.48H236.8Z"/><path class="cls-1" d="M268.84,160.42V134.34h2.53v26.08Z"/><path class="cls-1" d="M307.2,156.63a11.05,11.05,0,0,1-8.35,4,10.61,10.61,0,0,1-4.87-1.13,12.94,12.94,0,0,1-3.87-3,14.19,14.19,0,0,1-2.55-4.25,13.25,13.25,0,0,1-.92-4.88,14,14,0,0,1,.9-5,13.41,13.41,0,0,1,2.5-4.22,12.06,12.06,0,0,1,3.83-2.9,10.76,10.76,0,0,1,4.83-1.09,13.38,13.38,0,0,1,3.48.42,11,11,0,0,1,2.79,1.18,9.2,9.2,0,0,1,2.16,1.8,11.14,11.14,0,0,1,1.54,2.3l-2,1.33a8.4,8.4,0,0,0-3.34-3.57,9.5,9.5,0,0,0-4.67-1.14,8.3,8.3,0,0,0-3.92.92,9.41,9.41,0,0,0-3,2.44,11.26,11.26,0,0,0-1.89,3.5,12.44,12.44,0,0,0-.67,4.06,11.84,11.84,0,0,0,.76,4.2,10.91,10.91,0,0,0,2.08,3.47,10,10,0,0,0,3.1,2.37,8.65,8.65,0,0,0,3.89.89,9.13,9.13,0,0,0,4.26-1,13.06,13.06,0,0,0,3.9-3.29v-4.38h-5.77v-2h8v12.84H307.2Z"/><path class="cls-1" d="M345.75,134.31v26.11h-2.58V148.21H327.68v12.21h-2.53V134.31h2.53v11.62h15.49V134.31Z"/><path class="cls-1" d="M381.2,136.58h-9.3v23.84h-2.58V136.58H360v-2.27H381.2Z"/><path class="cls-1" d="M414.23,160.42V134.31h10.82a6.73,6.73,0,0,1,3.1.71,8,8,0,0,1,2.45,1.88,8.52,8.52,0,0,1,1.6,2.63,8.17,8.17,0,0,1,.57,3,9.32,9.32,0,0,1-.53,3.11,8.3,8.3,0,0,1-1.53,2.63,7.61,7.61,0,0,1-2.37,1.83,6.64,6.64,0,0,1-3.07.7h-8.5v9.64Zm2.54-11.92h8.35a4.29,4.29,0,0,0,2.08-.5,4.86,4.86,0,0,0,1.6-1.32,6.38,6.38,0,0,0,1-1.91,7.18,7.18,0,0,0,.37-2.26,6.11,6.11,0,0,0-.43-2.3,6.24,6.24,0,0,0-1.14-1.9,5.23,5.23,0,0,0-1.69-1.26,4.69,4.69,0,0,0-2-.47h-8.13Z"/><path class="cls-1" d="M442.88,160.42l10.93-26.11h2.1l10.92,26.11h-2.76l-3.38-8.17H449l-3.35,8.17Zm12-23.1-5.37,12.91H460.1Z"/><path class="cls-1" d="M480.92,160.42V134.31h11A6.84,6.84,0,0,1,495,135a8.06,8.06,0,0,1,2.47,1.88,8.52,8.52,0,0,1,1.6,2.63,8.17,8.17,0,0,1,.57,3,8.93,8.93,0,0,1-.43,2.74,8,8,0,0,1-1.19,2.35,7.37,7.37,0,0,1-1.84,1.77,6.38,6.38,0,0,1-2.39,1l6.44,10.08h-2.91l-6.18-9.64h-7.72v9.64Zm2.54-11.92H492a4.23,4.23,0,0,0,2.07-.5,4.69,4.69,0,0,0,1.6-1.34,6.39,6.39,0,0,0,1-1.91,6.71,6.71,0,0,0,.37-2.24,6.36,6.36,0,0,0-1.56-4.16,5.47,5.47,0,0,0-1.69-1.29,4.7,4.7,0,0,0-2-.48h-8.35Z"/><path class="cls-1" d="M533.44,136.58h-9.31v23.84h-2.57V136.58h-9.31v-2.27h21.19Z"/><path class="cls-1" d="M550.28,139.09v21.33h-2.54V134.31h2L567,156v-21.7h2.54v26.08h-2.21Z"/><path class="cls-1" d="M604,158.14v2.28H586.48V134.31h17.21v2.27H589V146h12.8v2.17H589v10Z"/><path class="cls-1" d="M619.32,160.42V134.31h11a6.87,6.87,0,0,1,3.12.71,8.14,8.14,0,0,1,2.46,1.88,8.52,8.52,0,0,1,1.6,2.63,8.17,8.17,0,0,1,.57,3,8.92,8.92,0,0,1-.42,2.74,8,8,0,0,1-1.2,2.35,7.33,7.33,0,0,1-1.83,1.77,6.43,6.43,0,0,1-2.4,1l6.44,10.08h-2.9l-6.18-9.64h-7.73v9.64Zm2.54-11.92h8.57a4.27,4.27,0,0,0,2.08-.5,4.69,4.69,0,0,0,1.6-1.34,6.39,6.39,0,0,0,1-1.91,6.71,6.71,0,0,0,.37-2.24,6.17,6.17,0,0,0-.42-2.26,6.54,6.54,0,0,0-1.14-1.9,5.51,5.51,0,0,0-1.7-1.29,4.7,4.7,0,0,0-2-.48h-8.35Z"/><path class="cls-1" d="M669.23,139.2a8,8,0,0,0-3-2,10.87,10.87,0,0,0-4.17-.77q-3.5,0-5.08,1.31a4.37,4.37,0,0,0-1.58,3.55,3.94,3.94,0,0,0,.42,1.93,3.69,3.69,0,0,0,1.33,1.3,9.41,9.41,0,0,0,2.28,1c.92.27,2,.54,3.25.81a38.43,38.43,0,0,1,3.76,1,10.79,10.79,0,0,1,2.83,1.36,5.8,5.8,0,0,1,1.8,2,6.39,6.39,0,0,1,.62,3,6.6,6.6,0,0,1-.7,3.13,6.2,6.2,0,0,1-1.94,2.2,8.71,8.71,0,0,1-3,1.31,16,16,0,0,1-3.76.42,15.37,15.37,0,0,1-10.48-3.79l1.25-2.09a11.79,11.79,0,0,0,3.86,2.55,13.49,13.49,0,0,0,5.41,1.05,9,9,0,0,0,4.89-1.12,3.76,3.76,0,0,0,1.77-3.41,4,4,0,0,0-.5-2,4.28,4.28,0,0,0-1.49-1.43,10.5,10.5,0,0,0-2.48-1.05c-1-.29-2.14-.58-3.44-.88s-2.57-.65-3.6-1a9.41,9.41,0,0,1-2.6-1.28,5.28,5.28,0,0,1-1.58-1.86,6.08,6.08,0,0,1-.53-2.67,7.21,7.21,0,0,1,.68-3.21,6.38,6.38,0,0,1,1.91-2.36,9,9,0,0,1,2.94-1.43,13.59,13.59,0,0,1,3.77-.5,12.86,12.86,0,0,1,4.62.79,12.6,12.6,0,0,1,3.7,2.23Z"/><path class="cls-1" d="M706.42,160.42V134.34H709v26.08Z"/><path class="cls-1" d="M728.42,139.09v21.33h-2.54V134.31h2L745.15,156v-21.7h2.54v26.08h-2.21Z"/><path class="cls-1" d="M782.74,134.31l8.57,14.05,8.61-14.05h2.79l-10.15,16.4v9.71H790v-9.79L780,134.31Z"/><path class="cls-1" d="M825.67,160.6a11,11,0,0,1-5-1.12,12.43,12.43,0,0,1-3.89-3,13.51,13.51,0,0,1-2.5-4.25,14.18,14.18,0,0,1-.88-4.89,13.46,13.46,0,0,1,.94-5,13.84,13.84,0,0,1,2.59-4.23,12.44,12.44,0,0,1,3.9-2.92,11.32,11.32,0,0,1,9.84.07,12.6,12.6,0,0,1,3.86,3,14.12,14.12,0,0,1,2.48,4.25,13.79,13.79,0,0,1-2.63,14.05,12.26,12.26,0,0,1-3.88,2.91A11,11,0,0,1,825.67,160.6ZM816,147.36a12.31,12.31,0,0,0,.7,4.1,11.18,11.18,0,0,0,2,3.5,9.84,9.84,0,0,0,3.05,2.43,8.56,8.56,0,0,0,3.94.9,8.4,8.4,0,0,0,4-1,9.77,9.77,0,0,0,3.05-2.5,11.65,11.65,0,0,0,1.93-3.49,12.09,12.09,0,0,0,0-8.08,11.32,11.32,0,0,0-2-3.48,9.94,9.94,0,0,0-3.06-2.4,8.29,8.29,0,0,0-3.89-.9,8.59,8.59,0,0,0-4,.93,9.57,9.57,0,0,0-3,2.48,11.61,11.61,0,0,0-1.94,3.5A12,12,0,0,0,816,147.36Z"/><path class="cls-1" d="M863.74,158.29a8.19,8.19,0,0,0,4.09-.94,7.37,7.37,0,0,0,2.61-2.47,10,10,0,0,0,1.37-3.47,20.79,20.79,0,0,0,.38-3.94V134.31h2.58v13.16a21,21,0,0,1-.59,5,11.87,11.87,0,0,1-1.89,4.17,9.56,9.56,0,0,1-3.41,2.87,11.16,11.16,0,0,1-5.11,1.06,10.93,10.93,0,0,1-5.22-1.12,9.43,9.43,0,0,1-3.38-3,12,12,0,0,1-1.85-4.19,21.68,21.68,0,0,1-.55-4.86V134.31h2.54v13.16a19.69,19.69,0,0,0,.41,4,10.11,10.11,0,0,0,1.37,3.46,7.4,7.4,0,0,0,2.6,2.43A8.14,8.14,0,0,0,863.74,158.29Z"/><path class="cls-1" d="M891.25,160.42V134.31h11a6.84,6.84,0,0,1,3.12.71,8,8,0,0,1,2.46,1.88,8.52,8.52,0,0,1,1.6,2.63,8.17,8.17,0,0,1,.57,3,8.92,8.92,0,0,1-.42,2.74,8.25,8.25,0,0,1-1.19,2.35,7.54,7.54,0,0,1-1.84,1.77,6.38,6.38,0,0,1-2.39,1l6.43,10.08h-2.9l-6.18-9.64h-7.72v9.64Zm2.54-11.92h8.57a4.23,4.23,0,0,0,2.07-.5,4.69,4.69,0,0,0,1.6-1.34,6.39,6.39,0,0,0,1-1.91,6.71,6.71,0,0,0,.37-2.24,6.17,6.17,0,0,0-.42-2.26,6.54,6.54,0,0,0-1.14-1.9,5.51,5.51,0,0,0-1.7-1.29,4.7,4.7,0,0,0-2-.48h-8.34Z"/><path class="cls-1" d="M960.87,139.2a8,8,0,0,0-3-2,10.87,10.87,0,0,0-4.17-.77q-3.5,0-5.08,1.31a4.37,4.37,0,0,0-1.58,3.55,3.94,3.94,0,0,0,.42,1.93,3.69,3.69,0,0,0,1.33,1.3,9.41,9.41,0,0,0,2.28,1c.92.27,2,.54,3.25.81a38.43,38.43,0,0,1,3.76,1,10.79,10.79,0,0,1,2.83,1.36,5.8,5.8,0,0,1,1.8,2,6.39,6.39,0,0,1,.62,3,6.6,6.6,0,0,1-.7,3.13,6.2,6.2,0,0,1-1.94,2.2,8.71,8.71,0,0,1-3,1.31,16,16,0,0,1-3.76.42,15.37,15.37,0,0,1-10.48-3.79l1.25-2.09a11.79,11.79,0,0,0,3.86,2.55,13.49,13.49,0,0,0,5.41,1.05,9,9,0,0,0,4.89-1.12,3.76,3.76,0,0,0,1.77-3.41,4,4,0,0,0-.5-2,4.28,4.28,0,0,0-1.49-1.43,10.5,10.5,0,0,0-2.48-1.05c-1-.29-2.14-.58-3.44-.88s-2.57-.65-3.6-1a9.27,9.27,0,0,1-2.6-1.28,5.18,5.18,0,0,1-1.58-1.86,6.08,6.08,0,0,1-.53-2.67,7.21,7.21,0,0,1,.68-3.21,6.38,6.38,0,0,1,1.91-2.36,9,9,0,0,1,2.94-1.43,13.59,13.59,0,0,1,3.77-.5,12.86,12.86,0,0,1,4.62.79,12.6,12.6,0,0,1,3.7,2.23Z"/><path class="cls-1" d="M988.91,158.29a8.19,8.19,0,0,0,4.09-.94,7.49,7.49,0,0,0,2.62-2.47,10,10,0,0,0,1.36-3.47,20.79,20.79,0,0,0,.38-3.94V134.31h2.58v13.16a21,21,0,0,1-.59,5,11.87,11.87,0,0,1-1.89,4.17,9.56,9.56,0,0,1-3.41,2.87,11.16,11.16,0,0,1-5.11,1.06,11,11,0,0,1-5.22-1.12,9.43,9.43,0,0,1-3.38-3,12,12,0,0,1-1.85-4.19,21.68,21.68,0,0,1-.55-4.86V134.31h2.54v13.16a19.69,19.69,0,0,0,.41,4,10.11,10.11,0,0,0,1.37,3.46,7.4,7.4,0,0,0,2.6,2.43A8.14,8.14,0,0,0,988.91,158.29Z"/><path class="cls-1" d="M1014.72,147.18a14,14,0,0,1,.83-4.69,12.91,12.91,0,0,1,2.41-4.18,12.29,12.29,0,0,1,3.9-3,11.47,11.47,0,0,1,5.26-1.16,10.88,10.88,0,0,1,6,1.58,10,10,0,0,1,3.67,4.12l-2.06,1.25a8.18,8.18,0,0,0-1.5-2.17,7.87,7.87,0,0,0-1.92-1.43,8.1,8.1,0,0,0-2.13-.8,10.9,10.9,0,0,0-2.17-.23,8.71,8.71,0,0,0-4.16,1,9.58,9.58,0,0,0-3,2.5,11,11,0,0,0-1.86,3.48,12.5,12.5,0,0,0-.63,3.91,11.92,11.92,0,0,0,2.82,7.67,9.86,9.86,0,0,0,3.09,2.43,8.49,8.49,0,0,0,3.88.9,9.89,9.89,0,0,0,2.26-.27,8.58,8.58,0,0,0,2.25-.89,9.26,9.26,0,0,0,2-1.5,8,8,0,0,0,1.54-2.19l2.14,1.1a8,8,0,0,1-1.77,2.59,11.78,11.78,0,0,1-2.54,1.9,12.86,12.86,0,0,1-3,1.17,11.74,11.74,0,0,1-3.07.41,10.51,10.51,0,0,1-4.93-1.17,13,13,0,0,1-3.86-3.08,14.12,14.12,0,0,1-2.52-4.3A14,14,0,0,1,1014.72,147.18Z"/><path class="cls-1" d="M1050.36,147.18a14,14,0,0,1,.83-4.69,12.91,12.91,0,0,1,2.41-4.18,12.4,12.4,0,0,1,3.9-3,11.5,11.5,0,0,1,5.26-1.16,10.86,10.86,0,0,1,6,1.58,9.83,9.83,0,0,1,3.67,4.12l-2.06,1.25a7.74,7.74,0,0,0-1.5-2.17,8,8,0,0,0-1.91-1.43,8.16,8.16,0,0,0-2.14-.8,10.82,10.82,0,0,0-2.17-.23,8.74,8.74,0,0,0-4.16,1,9.58,9.58,0,0,0-3,2.5,11,11,0,0,0-1.86,3.48,12.78,12.78,0,0,0-.62,3.91,11.66,11.66,0,0,0,.75,4.16,11.9,11.9,0,0,0,2.06,3.51,9.86,9.86,0,0,0,3.09,2.43,8.49,8.49,0,0,0,3.88.9,9.89,9.89,0,0,0,2.26-.27,8.44,8.44,0,0,0,2.25-.89,9.26,9.26,0,0,0,2-1.5,7.85,7.85,0,0,0,1.55-2.19l2.13,1.1a7.93,7.93,0,0,1-1.76,2.59,11.78,11.78,0,0,1-2.54,1.9,12.86,12.86,0,0,1-3,1.17,11.85,11.85,0,0,1-3.07.41,10.49,10.49,0,0,1-4.93-1.17,13,13,0,0,1-3.87-3.08,14.52,14.52,0,0,1-3.42-9.21Z"/><path class="cls-1" d="M1105.24,158.14v2.28H1087.7V134.31h17.21v2.27h-14.67V146H1103v2.17h-12.8v10Z"/><path class="cls-1" d="M1135.44,139.2a8,8,0,0,0-3-2,10.87,10.87,0,0,0-4.17-.77q-3.49,0-5.08,1.31a4.37,4.37,0,0,0-1.58,3.55,3.94,3.94,0,0,0,.42,1.93,3.61,3.61,0,0,0,1.33,1.3,9.41,9.41,0,0,0,2.28,1c.92.27,2,.54,3.25.81a37.46,37.46,0,0,1,3.75,1,10.49,10.49,0,0,1,2.83,1.36,5.74,5.74,0,0,1,1.81,2,6.39,6.39,0,0,1,.62,3,6.6,6.6,0,0,1-.7,3.13,6.2,6.2,0,0,1-1.94,2.2,8.68,8.68,0,0,1-3,1.31,15.83,15.83,0,0,1-3.75.42,15.37,15.37,0,0,1-10.48-3.79l1.25-2.09a11.69,11.69,0,0,0,3.86,2.55,13.49,13.49,0,0,0,5.41,1.05,9.05,9.05,0,0,0,4.89-1.12,3.76,3.76,0,0,0,1.77-3.41,4,4,0,0,0-.5-2,4.28,4.28,0,0,0-1.49-1.43,10.5,10.5,0,0,0-2.48-1.05c-1-.29-2.14-.58-3.44-.88s-2.58-.65-3.61-1a9.34,9.34,0,0,1-2.59-1.28,5.18,5.18,0,0,1-1.58-1.86,5.94,5.94,0,0,1-.53-2.67,7.21,7.21,0,0,1,.68-3.21,6.38,6.38,0,0,1,1.91-2.36,9,9,0,0,1,2.94-1.43,13.54,13.54,0,0,1,3.77-.5,12.86,12.86,0,0,1,4.62.79,12.43,12.43,0,0,1,3.69,2.23Z"/><path class="cls-1" d="M1168.25,139.2a8,8,0,0,0-3-2,10.87,10.87,0,0,0-4.17-.77q-3.51,0-5.08,1.31a4.37,4.37,0,0,0-1.58,3.55,3.94,3.94,0,0,0,.42,1.93,3.61,3.61,0,0,0,1.33,1.3,9.08,9.08,0,0,0,2.28,1c.92.27,2,.54,3.25.81a37.46,37.46,0,0,1,3.75,1,10.64,10.64,0,0,1,2.83,1.36,5.74,5.74,0,0,1,1.81,2,6.39,6.39,0,0,1,.62,3,6.6,6.6,0,0,1-.7,3.13,6.13,6.13,0,0,1-2,2.2,8.54,8.54,0,0,1-3,1.31,15.83,15.83,0,0,1-3.75.42,15.35,15.35,0,0,1-10.48-3.79l1.25-2.09a11.69,11.69,0,0,0,3.86,2.55,13.49,13.49,0,0,0,5.41,1.05,9.08,9.08,0,0,0,4.89-1.12,3.76,3.76,0,0,0,1.77-3.41,4,4,0,0,0-.5-2,4.28,4.28,0,0,0-1.49-1.43,10.5,10.5,0,0,0-2.48-1.05c-1-.29-2.14-.58-3.44-.88s-2.58-.65-3.61-1a9.34,9.34,0,0,1-2.59-1.28,5.18,5.18,0,0,1-1.58-1.86,5.94,5.94,0,0,1-.53-2.67,7.21,7.21,0,0,1,.68-3.21,6.38,6.38,0,0,1,1.91-2.36,9,9,0,0,1,2.94-1.43,13.54,13.54,0,0,1,3.77-.5,12.86,12.86,0,0,1,4.62.79,12.43,12.43,0,0,1,3.69,2.23Z"/><path class="cls-2" d="M0,0V180.63H175V0ZM129.54,158.55h-84V136.16l28,.17V97.75l32.27,38.58,23.73-.17ZM152.9,59.14H129.35V43.65H101.44V90L69.17,43.65H45.63V59.14H22.08V22.08H152.9Z"/></svg>