<svg id="_x31_px" enable-background="new 0 0 24 24" height="512" viewBox="0 0 24 24" width="512" xmlns="http://www.w3.org/2000/svg"><path d="m11.894 24c-.131 0-.259-.052-.354-.146-.118-.118-.17-.288-.137-.451l.707-3.535c.02-.098.066-.187.137-.256l7.778-7.778c.584-.584 1.537-.584 2.121 0l1.414 1.414c.585.585.585 1.536 0 2.121l-7.778 7.778c-.069.07-.158.117-.256.137l-3.535.707c-.032.006-.065.009-.097.009zm1.168-3.789-.53 2.651 2.651-.53 7.671-7.671c.195-.195.195-.512 0-.707l-1.414-1.414c-.195-.195-.512-.195-.707 0zm2.367 2.582h.01z"/><path d="m18.5 8h-15c-1.93 0-3.5-1.57-3.5-3.5s1.57-3.5 3.5-3.5h15c1.93 0 3.5 1.57 3.5 3.5s-1.57 3.5-3.5 3.5zm-15-6c-1.379 0-2.5 1.121-2.5 2.5s1.121 2.5 2.5 2.5h15c1.379 0 2.5-1.121 2.5-2.5s-1.121-2.5-2.5-2.5z"/><path d="m4.5 6c-.827 0-1.5-.673-1.5-1.5s.673-1.5 1.5-1.5 1.5.673 1.5 1.5-.673 1.5-1.5 1.5zm0-2c-.275 0-.5.225-.5.5s.225.5.5.5.5-.225.5-.5-.225-.5-.5-.5z"/><path d="m9.5 6c-.827 0-1.5-.673-1.5-1.5s.673-1.5 1.5-1.5 1.5.673 1.5 1.5-.673 1.5-1.5 1.5zm0-2c-.275 0-.5.225-.5.5s.225.5.5.5.5-.225.5-.5-.225-.5-.5-.5z"/><path d="m14.5 14h-11c-1.93 0-3.5-1.57-3.5-3.5 0-.934.364-1.812 1.026-2.474s1.54-1.026 2.474-1.026h15c1.208 0 2.312.606 2.953 1.623.147.233.077.542-.156.689-.23.146-.543.078-.689-.156-.458-.723-1.246-1.156-2.108-1.156h-15c-.666 0-1.294.261-1.767.733s-.733 1.101-.733 1.767c0 1.379 1.121 2.5 2.5 2.5h11c.276 0 .5.224.5.5s-.224.5-.5.5z"/><path d="m4.5 12c-.827 0-1.5-.673-1.5-1.5s.673-1.5 1.5-1.5 1.5.673 1.5 1.5-.673 1.5-1.5 1.5zm0-2c-.275 0-.5.225-.5.5s.225.5.5.5.5-.225.5-.5-.225-.5-.5-.5z"/><path d="m9.5 12c-.827 0-1.5-.673-1.5-1.5s.673-1.5 1.5-1.5 1.5.673 1.5 1.5-.673 1.5-1.5 1.5zm0-2c-.275 0-.5.225-.5.5s.225.5.5.5.5-.225.5-.5-.225-.5-.5-.5z"/><path d="m9.5 20h-6c-1.93 0-3.5-1.57-3.5-3.5 0-.934.364-1.812 1.026-2.474s1.54-1.026 2.474-1.026h11c.276 0 .5.224.5.5s-.224.5-.5.5h-11c-.666 0-1.294.261-1.767.733s-.733 1.101-.733 1.767c0 1.379 1.121 2.5 2.5 2.5h6c.276 0 .5.224.5.5s-.224.5-.5.5z"/><path d="m4.5 18c-.827 0-1.5-.673-1.5-1.5s.673-1.5 1.5-1.5 1.5.673 1.5 1.5-.673 1.5-1.5 1.5zm0-2c-.275 0-.5.225-.5.5s.225.5.5.5.5-.225.5-.5-.225-.5-.5-.5z"/><path d="m9.5 18c-.827 0-1.5-.673-1.5-1.5s.673-1.5 1.5-1.5 1.5.673 1.5 1.5-.673 1.5-1.5 1.5zm0-2c-.275 0-.5.225-.5.5s.225.5.5.5.5-.225.5-.5-.225-.5-.5-.5z"/></svg>