<?xml version="1.0"?>
<svg xmlns="http://www.w3.org/2000/svg" id="_x31__px" enable-background="new 0 0 24 24" height="512px" viewBox="0 0 24 24" width="512px"><g><path d="m10.38 21h-7.88c-1.378 0-2.5-1.121-2.5-2.5v-16c0-1.379 1.122-2.5 2.5-2.5h12c1.378 0 2.5 1.121 2.5 2.5v7.03c0 .276-.224.5-.5.5s-.5-.223-.5-.5v-7.03c0-.827-.673-1.5-1.5-1.5h-12c-.827 0-1.5.673-1.5 1.5v16c0 .827.673 1.5 1.5 1.5h7.88c.276 0 .5.224.5.5s-.224.5-.5.5z" data-original="#000000" class="active-path" fill="#000000"/><path d="m13.5 9h-10c-.276 0-.5-.224-.5-.5s.224-.5.5-.5h10c.276 0 .5.224.5.5s-.224.5-.5.5z" data-original="#000000" class="active-path" fill="#000000"/><path d="m9.5 13h-6c-.276 0-.5-.224-.5-.5s.224-.5.5-.5h6c.276 0 .5.224.5.5s-.224.5-.5.5z" data-original="#000000" class="active-path" fill="#000000"/><path d="m8.5 5h-5c-.276 0-.5-.224-.5-.5s.224-.5.5-.5h5c.276 0 .5.224.5.5s-.224.5-.5.5z" data-original="#000000" class="active-path" fill="#000000"/><path d="m17 22c-2.757 0-5-2.243-5-5s2.243-5 5-5 5 2.243 5 5-2.243 5-5 5zm0-9c-2.206 0-4 1.794-4 4s1.794 4 4 4 4-1.794 4-4-1.794-4-4-4z" data-original="#000000" class="active-path" fill="#000000"/><path d="m23.5 24c-.128 0-.256-.049-.354-.146l-3.318-3.318c-.195-.195-.195-.512 0-.707s.512-.195.707 0l3.318 3.318c.195.195.195.512 0 .707-.097.097-.225.146-.353.146z" data-original="#000000" class="active-path" fill="#000000"/></g> </svg>
